<svg id="Logo" xmlns="http://www.w3.org/2000/svg" xmlns:xlink="http://www.w3.org/1999/xlink" width="124.567" height="20.853" viewBox="0 0 124.567 20.853">
  <defs>
    <clipPath id="clip-path">
      <rect id="Rectangle_192" data-name="Rectangle 192" width="124.567" height="20.853" fill="none"/>
    </clipPath>
  </defs>
  <g id="Group_11" data-name="Group 11" clip-path="url(#clip-path)">
    <path id="Path_57" data-name="Path 57" d="M21.1,13.974H17.105a.324.324,0,0,1-.37-.363V12.562c0-.228.123-.342.37-.342h3.644q1.41,0,1.409-.962V11a1.421,1.421,0,0,0-1.019-1.3L18.774,8.585a4.419,4.419,0,0,1-1.6-1.133,2.507,2.507,0,0,1-.5-1.625q0-2.759,3.1-2.757h3.6c.233,0,.347.122.347.363V4.481c0,.242-.115.363-.347.363H20.206a1.843,1.843,0,0,0-1,.224.677.677,0,0,0-.346.588v.235q0,.685,1.106,1.2l2.386,1.2A3.347,3.347,0,0,1,23.9,9.452a3.23,3.23,0,0,1,.422,1.743q0,2.78-3.231,2.78" transform="translate(6.964 1.22)" fill="#231f20"/>
    <path id="Path_58" data-name="Path 58" d="M28.782,13.974h-1.91a3.359,3.359,0,0,1-2.484-.878,3.289,3.289,0,0,1-.879-2.437V6.383a3.284,3.284,0,0,1,.879-2.448,3.388,3.388,0,0,1,2.484-.865h1.91a3.437,3.437,0,0,1,2.484.865,3.24,3.24,0,0,1,.9,2.448v4.276a3.245,3.245,0,0,1-.9,2.437,3.408,3.408,0,0,1-2.484.878m-1.606-1.818H28.5a1.38,1.38,0,0,0,1.561-1.561V6.447A1.38,1.38,0,0,0,28.5,4.886H27.175a1.621,1.621,0,0,0-1.192.375,1.635,1.635,0,0,0-.37,1.187v4.148a1.632,1.632,0,0,0,.37,1.187,1.615,1.615,0,0,0,1.192.375" transform="translate(9.821 1.22)" fill="#231f20"/>
    <path id="Path_59" data-name="Path 59" d="M30.9,13.611v-.555a1.436,1.436,0,0,1,.3-.921l5.01-7.162V4.886H31.464a.342.342,0,0,1-.39-.384V3.432c0-.242.13-.363.39-.363h6.855a.324.324,0,0,1,.369.363v.984a1.194,1.194,0,0,1-.259.812L33.677,12.07v.085h4.837a.343.343,0,0,1,.39.386v1.069c0,.243-.129.363-.39.363H31.29c-.259,0-.39-.12-.39-.363" transform="translate(12.909 1.22)" fill="#231f20"/>
    <path id="Path_60" data-name="Path 60" d="M39.8,15.148H38.429a.324.324,0,0,1-.37-.363V.479a.324.324,0,0,1,.37-.363H39.8a.323.323,0,0,1,.367.363V14.784a.323.323,0,0,1-.367.363" transform="translate(15.899 0.046)" fill="#231f20"/>
    <path id="Path_61" data-name="Path 61" d="M45.681,13.974h-.975a3.177,3.177,0,0,1-2.4-.866,3.388,3.388,0,0,1-.835-2.448V3.432a.323.323,0,0,1,.369-.363h1.367a.323.323,0,0,1,.369.363v7.141a1.39,1.39,0,0,0,1.562,1.582h1.042a1.588,1.588,0,0,0,1.776-1.817V3.432a.324.324,0,0,1,.37-.363h1.367c.261,0,.39.122.39.363V13.611c0,.243-.129.363-.39.363H48.328a.324.324,0,0,1-.37-.363v-.77h-.085a2.159,2.159,0,0,1-2.192,1.133" transform="translate(17.326 1.22)" fill="#231f20"/>
    <path id="Path_62" data-name="Path 62" d="M51.194,15.148H49.828a.323.323,0,0,1-.369-.363V.479a.324.324,0,0,1,.369-.363h1.367a.324.324,0,0,1,.369.363V14.784a.323.323,0,0,1-.369.363m4.555-10.9h1.562a.3.3,0,0,1,.271.117q.074.117-.055.31L54.469,9.46v.085l3.3,5.175a.272.272,0,0,1,.031.3.334.334,0,0,1-.313.129H56.074a.817.817,0,0,1-.737-.363L52.279,9.846a.589.589,0,0,1,0-.577L55.12,4.585a.67.67,0,0,1,.629-.342" transform="translate(20.662 0.046)" fill="#231f20"/>
    <path id="Path_63" data-name="Path 63" d="M56,3.069h1.018a.33.33,0,0,1,.347.3l2.6,9.046h.109l2.58-9.046a.362.362,0,0,1,.369-.3h1.021c.2,0,.274.1.215.3L61.14,13.654a.359.359,0,0,1-.39.32H59.276a.377.377,0,0,1-.391-.32l-3.1-10.286c-.058-.2.014-.3.218-.3" transform="translate(23.295 1.22)" fill="#231f20"/>
    <path id="Path_64" data-name="Path 64" d="M70.779,13.974h-4.6a3.23,3.23,0,0,1-2.352-.833,3.1,3.1,0,0,1-.858-2.331V6.234A3.1,3.1,0,0,1,63.827,3.9a3.231,3.231,0,0,1,2.352-.834H68a3.193,3.193,0,0,1,2.342.834,3.125,3.125,0,0,1,.846,2.331V8.95c0,.214-.1.32-.3.32H64.748c-.146,0-.218.064-.218.193v1.3a1.627,1.627,0,0,0,1.823,1.86h4.426a.267.267,0,0,1,.3.3v.77c0,.184-.1.277-.3.277M64.748,8.136h4.684a.19.19,0,0,0,.217-.214V6.276a1.618,1.618,0,0,0-1.822-1.839H66.353A1.618,1.618,0,0,0,64.53,6.276V7.923a.191.191,0,0,0,.218.214" transform="translate(26.306 1.22)" fill="#231f20"/>
    <path id="Path_65" data-name="Path 65" d="M71.929,13.974h-.975a.266.266,0,0,1-.3-.3V3.368a.266.266,0,0,1,.3-.3h.975a.266.266,0,0,1,.3.3v.855h.085a1.884,1.884,0,0,1,.825-.813,2.874,2.874,0,0,1,1.432-.341h.846c.189,0,.282.1.282.3v.791a.342.342,0,0,1-.065.225.23.23,0,0,1-.217.053H74.251a1.91,1.91,0,0,0-1.5.577,2.274,2.274,0,0,0-.52,1.582v7.078a.266.266,0,0,1-.3.3" transform="translate(29.514 1.22)" fill="#231f20"/>
    <path id="Path_66" data-name="Path 66" d="M79.492,13.974H75.63a.266.266,0,0,1-.3-.3v-.749c0-.184.1-.278.3-.278h3.645q1.693,0,1.691-1.24V11A1.561,1.561,0,0,0,79.86,9.44L77.3,8.371a3.784,3.784,0,0,1-1.584-1.058A2.55,2.55,0,0,1,75.24,5.7q0-2.631,2.928-2.63h3.557a.266.266,0,0,1,.3.3v.748c0,.186-.1.28-.3.28H78.451a1.859,1.859,0,0,0-1.182.32.937.937,0,0,0-.4.748v.363q0,.9,1.238,1.37l2.559,1.132a2.819,2.819,0,0,1,1.528,1.133,3.953,3.953,0,0,1,.4,1.947q0,2.566-3.1,2.566" transform="translate(31.432 1.22)" fill="#231f20"/>
    <path id="Path_67" data-name="Path 67" d="M89.873,13.974h-4.6a3.231,3.231,0,0,1-2.353-.833,3.1,3.1,0,0,1-.858-2.331V6.234A3.1,3.1,0,0,1,82.921,3.9a3.232,3.232,0,0,1,2.353-.834H87.1a3.188,3.188,0,0,1,2.342.834,3.12,3.12,0,0,1,.846,2.331V8.95c0,.214-.1.32-.3.32H83.842q-.217,0-.217.193v1.3a1.627,1.627,0,0,0,1.823,1.86h4.425a.267.267,0,0,1,.3.3v.77c0,.184-.1.277-.3.277M83.842,8.136h4.686a.19.19,0,0,0,.217-.214V6.276a1.619,1.619,0,0,0-1.822-1.839H85.449a1.618,1.618,0,0,0-1.823,1.839V7.923a.19.19,0,0,0,.217.214" transform="translate(34.282 1.22)" fill="#231f20"/>
    <g id="Group_284" data-name="Group 284" transform="translate(0.001 0.001)">
      <path id="Path_68" data-name="Path 68" d="M14.691,11.507,4.379,7.647,14.691,3.73V0L0,5.849v3.5L14.884,15Z" transform="translate(0 0)" fill="#327a3a"/>
      <path id="Path_69" data-name="Path 69" d="M.136,7.688l10.313,3.86L.136,15.466V19.2l14.691-5.849v-3.5L.36,4.167Z" transform="translate(0.056 1.656)" fill="#53cc60"/>
    </g>
  </g>
</svg>
